{
    "asset" : {
        "generator" : "Khronos glTF Blender I/O v3.4.50",
        "version" : "2.0"
    },
    "scene" : 0,
    "scenes" : [
        {
            "name" : "Scene",
            "nodes" : [
                5
            ]
        }
    ],
    "nodes" : [
        {
            "mesh" : 0,
            "name" : "Object_2"
        },
        {
            "mesh" : 1,
            "name" : "Object_3"
        },
        {
            "mesh" : 2,
            "name" : "Object_4"
        },
        {
            "mesh" : 3,
            "name" : "Object_5"
        },
        {
            "children" : [
                0,
                1,
                2,
                3
            ],
            "name" : "dwarf.dragonwarrior merged.stl.cleaner.materialmerger.gles"
        },
        {
            "children" : [
                4
            ],
            "name" : "Sketchfab_model",
            "rotation" : [
                -0.70710688829422,
                0,
                0,
                0.7071066498756409
            ]
        }
    ],
    "materials" : [
        {
            "doubleSided" : true,
            "name" : "Scene_-_Root",
            "pbrMetallicRoughness" : {
                "metallicFactor" : 0,
                "roughnessFactor" : 0.6000000238418579
            }
        }
    ],
    "meshes" : [
        {
            "name" : "Object_0",
            "primitives" : [
                {
                    "attributes" : {
                        "POSITION" : 0,
                        "NORMAL" : 1
                    },
                    "indices" : 2,
                    "material" : 0
                }
            ]
        },
        {
            "name" : "Object_1",
            "primitives" : [
                {
                    "attributes" : {
                        "POSITION" : 3,
                        "NORMAL" : 4
                    },
                    "indices" : 5,
                    "material" : 0
                }
            ]
        },
        {
            "name" : "Object_2",
            "primitives" : [
                {
                    "attributes" : {
                        "POSITION" : 6,
                        "NORMAL" : 7
                    },
                    "indices" : 8,
                    "material" : 0
                }
            ]
        },
        {
            "name" : "Object_3",
            "primitives" : [
                {
                    "attributes" : {
                        "POSITION" : 9,
                        "NORMAL" : 10
                    },
                    "indices" : 11,
                    "material" : 0
                }
            ]
        }
    ],
    "accessors" : [
        {
            "bufferView" : 0,
            "componentType" : 5126,
            "count" : 66193,
            "max" : [
                18.626829147338867,
                14.208001136779785,
                53.75164794921875
            ],
            "min" : [
                -16.598737716674805,
                -14.234617233276367,
                -3.7690627574920654
            ],
            "type" : "VEC3"
        },
        {
            "bufferView" : 1,
            "componentType" : 5126,
            "count" : 66193,
            "type" : "VEC3"
        },
        {
            "bufferView" : 2,
            "componentType" : 5125,
            "count" : 359106,
            "type" : "SCALAR"
        },
        {
            "bufferView" : 3,
            "componentType" : 5126,
            "count" : 65985,
            "max" : [
                19.438573837280273,
                12.070428848266602,
                53.855281829833984
            ],
            "min" : [
                -18.55226707458496,
                -10.770805358886719,
                0.0991646945476532
            ],
            "type" : "VEC3"
        },
        {
            "bufferView" : 4,
            "componentType" : 5126,
            "count" : 65985,
            "type" : "VEC3"
        },
        {
            "bufferView" : 5,
            "componentType" : 5125,
            "count" : 310206,
            "type" : "SCALAR"
        },
        {
            "bufferView" : 6,
            "componentType" : 5126,
            "count" : 65929,
            "max" : [
                19.404396057128906,
                12.028220176696777,
                53.95460891723633
            ],
            "min" : [
                -19.414133071899414,
                -12.048195838928223,
                0.004676504526287317
            ],
            "type" : "VEC3"
        },
        {
            "bufferView" : 7,
            "componentType" : 5126,
            "count" : 65929,
            "type" : "VEC3"
        },
        {
            "bufferView" : 8,
            "componentType" : 5125,
            "count" : 312354,
            "type" : "SCALAR"
        },
        {
            "bufferView" : 9,
            "componentType" : 5126,
            "count" : 65832,
            "max" : [
                19.416078567504883,
                12.038017272949219,
                53.926361083984375
            ],
            "min" : [
                -19.38801383972168,
                -12.031158447265625,
                -0.08358263969421387
            ],
            "type" : "VEC3"
        },
        {
            "bufferView" : 10,
            "componentType" : 5126,
            "count" : 65832,
            "type" : "VEC3"
        },
        {
            "bufferView" : 11,
            "componentType" : 5125,
            "count" : 202944,
            "type" : "SCALAR"
        }
    ],
    "bufferViews" : [
        {
            "buffer" : 0,
            "byteLength" : 794316,
            "byteOffset" : 0,
            "target" : 34962
        },
        {
            "buffer" : 0,
            "byteLength" : 794316,
            "byteOffset" : 794316,
            "target" : 34962
        },
        {
            "buffer" : 0,
            "byteLength" : 1436424,
            "byteOffset" : 1588632,
            "target" : 34963
        },
        {
            "buffer" : 0,
            "byteLength" : 791820,
            "byteOffset" : 3025056,
            "target" : 34962
        },
        {
            "buffer" : 0,
            "byteLength" : 791820,
            "byteOffset" : 3816876,
            "target" : 34962
        },
        {
            "buffer" : 0,
            "byteLength" : 1240824,
            "byteOffset" : 4608696,
            "target" : 34963
        },
        {
            "buffer" : 0,
            "byteLength" : 791148,
            "byteOffset" : 5849520,
            "target" : 34962
        },
        {
            "buffer" : 0,
            "byteLength" : 791148,
            "byteOffset" : 6640668,
            "target" : 34962
        },
        {
            "buffer" : 0,
            "byteLength" : 1249416,
            "byteOffset" : 7431816,
            "target" : 34963
        },
        {
            "buffer" : 0,
            "byteLength" : 789984,
            "byteOffset" : 8681232,
            "target" : 34962
        },
        {
            "buffer" : 0,
            "byteLength" : 789984,
            "byteOffset" : 9471216,
            "target" : 34962
        },
        {
            "buffer" : 0,
            "byteLength" : 811776,
            "byteOffset" : 10261200,
            "target" : 34963
        }
    ],
    "buffers" : [
        {
            "byteLength" : 11072976,
            "uri" : "scene.bin"
        }
    ]
}
