{
    "asset" : {
        "generator" : "Khronos glTF Blender I/O v3.4.50",
        "version" : "2.0"
    },
    "scene" : 0,
    "scenes" : [
        {
            "name" : "Scene",
            "nodes" : [
                0
            ]
        }
    ],
    "nodes" : [
        {
            "mesh" : 0,
            "name" : "d20",
            "rotation" : [
                0.014494265429675579,
                0.3661796450614929,
                -0.7627760767936707,
                0.532799243927002
            ],
            "scale" : [
                1.0014729499816895,
                1.0014731884002686,
                1.001473069190979
            ],
            "translation" : [
                0,
                0.869646430015564,
                0
            ]
        }
    ],
    "materials" : [
        {
            "doubleSided" : true,
            "name" : "Dice",
            "pbrMetallicRoughness" : {}
        },
        {
            "doubleSided" : true,
            "emissiveFactor" : [
                0.43305501341819763,
                0.058529697358608246,
                0.015158036723732948
            ],
            "name" : "Numbers",
            "pbrMetallicRoughness" : {
                "baseColorFactor" : [
                    0,
                    0,
                    0,
                    1
                ]
            }
        }
    ],
    "meshes" : [
        {
            "name" : "Icosphere",
            "primitives" : [
                {
                    "attributes" : {
                        "POSITION" : 0,
                        "TEXCOORD_0" : 1,
                        "NORMAL" : 2
                    },
                    "indices" : 3,
                    "material" : 0
                },
                {
                    "attributes" : {
                        "POSITION" : 4,
                        "TEXCOORD_0" : 5,
                        "NORMAL" : 6
                    },
                    "indices" : 7,
                    "material" : 1
                }
            ]
        }
    ],
    "accessors" : [
        {
            "bufferView" : 0,
            "componentType" : 5126,
            "count" : 35234,
            "max" : [
                0.8887860774993896,
                0.9660722017288208,
                0.8465575575828552
            ],
            "min" : [
                -0.8887859582901001,
                -0.9660722017288208,
                -0.8465574979782104
            ],
            "type" : "VEC3"
        },
        {
            "bufferView" : 1,
            "componentType" : 5126,
            "count" : 35234,
            "type" : "VEC2"
        },
        {
            "bufferView" : 2,
            "componentType" : 5126,
            "count" : 35234,
            "type" : "VEC3"
        },
        {
            "bufferView" : 3,
            "componentType" : 5123,
            "count" : 62316,
            "type" : "SCALAR"
        },
        {
            "bufferView" : 4,
            "componentType" : 5126,
            "count" : 92955,
            "max" : [
                0.8241243362426758,
                0.7455664873123169,
                0.8309160470962524
            ],
            "min" : [
                -0.8244404196739197,
                -0.8006159663200378,
                -0.8413218259811401
            ],
            "type" : "VEC3"
        },
        {
            "bufferView" : 5,
            "componentType" : 5126,
            "count" : 92955,
            "type" : "VEC2"
        },
        {
            "bufferView" : 6,
            "componentType" : 5126,
            "count" : 92955,
            "type" : "VEC3"
        },
        {
            "bufferView" : 7,
            "componentType" : 5125,
            "count" : 137175,
            "type" : "SCALAR"
        }
    ],
    "bufferViews" : [
        {
            "buffer" : 0,
            "byteLength" : 422808,
            "byteOffset" : 0,
            "target" : 34962
        },
        {
            "buffer" : 0,
            "byteLength" : 281872,
            "byteOffset" : 422808,
            "target" : 34962
        },
        {
            "buffer" : 0,
            "byteLength" : 422808,
            "byteOffset" : 704680,
            "target" : 34962
        },
        {
            "buffer" : 0,
            "byteLength" : 124632,
            "byteOffset" : 1127488,
            "target" : 34963
        },
        {
            "buffer" : 0,
            "byteLength" : 1115460,
            "byteOffset" : 1252120,
            "target" : 34962
        },
        {
            "buffer" : 0,
            "byteLength" : 743640,
            "byteOffset" : 2367580,
            "target" : 34962
        },
        {
            "buffer" : 0,
            "byteLength" : 1115460,
            "byteOffset" : 3111220,
            "target" : 34962
        },
        {
            "buffer" : 0,
            "byteLength" : 548700,
            "byteOffset" : 4226680,
            "target" : 34963
        }
    ],
    "buffers" : [
        {
            "byteLength" : 4775380,
            "uri" : "d20.bin"
        }
    ]
}
