{
    "asset" : {
        "generator" : "Khronos glTF Blender I/O v3.4.50",
        "version" : "2.0"
    },
    "scene" : 0,
    "scenes" : [
        {
            "name" : "Scene",
            "nodes" : [
                4
            ]
        }
    ],
    "nodes" : [
        {
            "mesh" : 0,
            "name" : "Cone_0"
        },
        {
            "mesh" : 1,
            "name" : "Cone_1"
        },
        {
            "children" : [
                0,
                1
            ],
            "name" : "Cone",
            "rotation" : [
                0,
                0,
                -1,
                0
            ],
            "scale" : [
                1.242264747619629,
                1.242264747619629,
                0.9423199892044067
            ],
            "translation" : [
                0,
                0,
                0.9584000110626221
            ]
        },
        {
            "children" : [
                2
            ],
            "name" : "Root"
        },
        {
            "children" : [
                3
            ],
            "name" : "Sketchfab_model",
            "rotation" : [
                -0.70710688829422,
                0,
                0,
                0.7071066498756409
            ]
        }
    ],
    "materials" : [
        {
            "alphaMode" : "BLEND",
            "doubleSided" : true,
            "name" : "Dice",
            "pbrMetallicRoughness" : {}
        },
        {
            "doubleSided" : true,
            "emissiveFactor" : [
                1,
                0.4047205150127411,
                0.09960242360830307
            ],
            "name" : "Numbers",
            "pbrMetallicRoughness" : {
                "baseColorFactor" : [
                    0,
                    0,
                    0,
                    1
                ]
            }
        }
    ],
    "meshes" : [
        {
            "name" : "Cone_0",
            "primitives" : [
                {
                    "attributes" : {
                        "POSITION" : 0,
                        "NORMAL" : 1
                    },
                    "indices" : 2,
                    "material" : 0
                }
            ]
        },
        {
            "name" : "Cone_1",
            "primitives" : [
                {
                    "attributes" : {
                        "POSITION" : 3,
                        "NORMAL" : 4
                    },
                    "indices" : 5,
                    "material" : 1
                }
            ]
        }
    ],
    "accessors" : [
        {
            "bufferView" : 0,
            "componentType" : 5126,
            "count" : 7787,
            "max" : [
                0.7774500250816345,
                0.9043599963188171,
                0.8196399807929993
            ],
            "min" : [
                -0.7773799896240234,
                -0.4683400094509125,
                -1
            ],
            "type" : "VEC3"
        },
        {
            "bufferView" : 1,
            "componentType" : 5126,
            "count" : 7787,
            "type" : "VEC3"
        },
        {
            "bufferView" : 2,
            "componentType" : 5123,
            "count" : 14505,
            "type" : "SCALAR"
        },
        {
            "bufferView" : 3,
            "componentType" : 5126,
            "count" : 20572,
            "max" : [
                0.6477000117301941,
                0.7696099877357483,
                0.5525799989700317
            ],
            "min" : [
                -0.7071999907493591,
                -0.4674200117588043,
                -1.0317599773406982
            ],
            "type" : "VEC3"
        },
        {
            "bufferView" : 4,
            "componentType" : 5126,
            "count" : 20572,
            "type" : "VEC3"
        },
        {
            "bufferView" : 5,
            "componentType" : 5123,
            "count" : 52992,
            "type" : "SCALAR"
        }
    ],
    "bufferViews" : [
        {
            "buffer" : 0,
            "byteLength" : 93444,
            "byteOffset" : 0,
            "target" : 34962
        },
        {
            "buffer" : 0,
            "byteLength" : 93444,
            "byteOffset" : 93444,
            "target" : 34962
        },
        {
            "buffer" : 0,
            "byteLength" : 29010,
            "byteOffset" : 186888,
            "target" : 34963
        },
        {
            "buffer" : 0,
            "byteLength" : 246864,
            "byteOffset" : 215900,
            "target" : 34962
        },
        {
            "buffer" : 0,
            "byteLength" : 246864,
            "byteOffset" : 462764,
            "target" : 34962
        },
        {
            "buffer" : 0,
            "byteLength" : 105984,
            "byteOffset" : 709628,
            "target" : 34963
        }
    ],
    "buffers" : [
        {
            "byteLength" : 815612,
            "uri" : "data:application/octet-stream;base64,"
        }
    ]
}
