{
    "asset" : {
        "generator" : "Khronos glTF Blender I/O v3.4.50",
        "version" : "2.0"
    },
    "scene" : 0,
    "scenes" : [
        {
            "name" : "Scene",
            "nodes" : [
                0
            ]
        }
    ],
    "nodes" : [
        {
            "mesh" : 0,
            "name" : "d12",
            "scale" : [
                0.5266111493110657,
                0.5266111493110657,
                0.5266111493110657
            ]
        }
    ],
    "materials" : [
        {
            "doubleSided" : true,
            "name" : "Dice.005",
            "pbrMetallicRoughness" : {}
        },
        {
            "doubleSided" : true,
            "emissiveFactor" : [
                0.43305501341819763,
                0.058529697358608246,
                0.015158036723732948
            ],
            "name" : "Numbers.005",
            "pbrMetallicRoughness" : {
                "baseColorFactor" : [
                    0,
                    0,
                    0,
                    1
                ]
            }
        }
    ],
    "meshes" : [
        {
            "name" : "Cube.004",
            "primitives" : [
                {
                    "attributes" : {
                        "POSITION" : 0,
                        "NORMAL" : 1
                    },
                    "indices" : 2,
                    "material" : 0
                },
                {
                    "attributes" : {
                        "POSITION" : 3,
                        "NORMAL" : 4
                    },
                    "indices" : 5,
                    "material" : 1
                }
            ]
        }
    ],
    "accessors" : [
        {
            "bufferView" : 0,
            "componentType" : 5126,
            "count" : 26046,
            "max" : [
                1.5900166034698486,
                1.5900166034698486,
                1.5900167226791382
            ],
            "min" : [
                -1.5900166034698486,
                -1.5900168418884277,
                -1.5900166034698486
            ],
            "type" : "VEC3"
        },
        {
            "bufferView" : 1,
            "componentType" : 5126,
            "count" : 26046,
            "type" : "VEC3"
        },
        {
            "bufferView" : 2,
            "componentType" : 5123,
            "count" : 28143,
            "type" : "SCALAR"
        },
        {
            "bufferView" : 3,
            "componentType" : 5126,
            "count" : 63570,
            "max" : [
                1.4433729648590088,
                1.4751651287078857,
                1.499497652053833
            ],
            "min" : [
                -1.4437838792800903,
                -1.5166804790496826,
                -1.4539878368377686
            ],
            "type" : "VEC3"
        },
        {
            "bufferView" : 4,
            "componentType" : 5126,
            "count" : 63570,
            "type" : "VEC3"
        },
        {
            "bufferView" : 5,
            "componentType" : 5123,
            "count" : 67371,
            "type" : "SCALAR"
        }
    ],
    "bufferViews" : [
        {
            "buffer" : 0,
            "byteLength" : 312552,
            "byteOffset" : 0,
            "target" : 34962
        },
        {
            "buffer" : 0,
            "byteLength" : 312552,
            "byteOffset" : 312552,
            "target" : 34962
        },
        {
            "buffer" : 0,
            "byteLength" : 56286,
            "byteOffset" : 625104,
            "target" : 34963
        },
        {
            "buffer" : 0,
            "byteLength" : 762840,
            "byteOffset" : 681392,
            "target" : 34962
        },
        {
            "buffer" : 0,
            "byteLength" : 762840,
            "byteOffset" : 1444232,
            "target" : 34962
        },
        {
            "buffer" : 0,
            "byteLength" : 134742,
            "byteOffset" : 2207072,
            "target" : 34963
        }
    ],
    "buffers" : [
        {
            "byteLength" : 2341816,
            "uri" : "d12.bin"
        }
    ]
}
