{
    "asset" : {
        "generator" : "Khronos glTF Blender I/O v3.4.50",
        "version" : "2.0"
    },
    "scene" : 0,
    "scenes" : [
        {
            "name" : "Scene",
            "nodes" : [
                6
            ]
        }
    ],
    "nodes" : [
        {
            "mesh" : 0,
            "name" : "Object_2"
        },
        {
            "mesh" : 1,
            "name" : "Object_3"
        },
        {
            "mesh" : 2,
            "name" : "Object_4"
        },
        {
            "mesh" : 3,
            "name" : "Object_5"
        },
        {
            "mesh" : 4,
            "name" : "Object_6"
        },
        {
            "children" : [
                0,
                1,
                2,
                3,
                4
            ],
            "name" : "Twinkle.stl.cleaner.materialmerger.gles"
        },
        {
            "children" : [
                5
            ],
            "name" : "Sketchfab_model",
            "rotation" : [
                -0.70710688829422,
                0,
                0,
                0.7071066498756409
            ]
        }
    ],
    "materials" : [
        {
            "doubleSided" : true,
            "name" : "Scene_-_Root",
            "pbrMetallicRoughness" : {
                "metallicFactor" : 0,
                "roughnessFactor" : 0.6000000238418579
            }
        }
    ],
    "meshes" : [
        {
            "name" : "Object_0",
            "primitives" : [
                {
                    "attributes" : {
                        "POSITION" : 0,
                        "NORMAL" : 1
                    },
                    "indices" : 2,
                    "material" : 0
                }
            ]
        },
        {
            "name" : "Object_1",
            "primitives" : [
                {
                    "attributes" : {
                        "POSITION" : 3,
                        "NORMAL" : 4
                    },
                    "indices" : 5,
                    "material" : 0
                }
            ]
        },
        {
            "name" : "Object_2",
            "primitives" : [
                {
                    "attributes" : {
                        "POSITION" : 6,
                        "NORMAL" : 7
                    },
                    "indices" : 8,
                    "material" : 0
                }
            ]
        },
        {
            "name" : "Object_3",
            "primitives" : [
                {
                    "attributes" : {
                        "POSITION" : 9,
                        "NORMAL" : 10
                    },
                    "indices" : 11,
                    "material" : 0
                }
            ]
        },
        {
            "name" : "Object_4",
            "primitives" : [
                {
                    "attributes" : {
                        "POSITION" : 12,
                        "NORMAL" : 13
                    },
                    "indices" : 14,
                    "material" : 0
                }
            ]
        }
    ],
    "accessors" : [
        {
            "bufferView" : 0,
            "componentType" : 5126,
            "count" : 65891,
            "max" : [
                14.803217887878418,
                24.374937057495117,
                91.83966064453125
            ],
            "min" : [
                -16.361522674560547,
                -11.205652236938477,
                7.026597499847412
            ],
            "type" : "VEC3"
        },
        {
            "bufferView" : 1,
            "componentType" : 5126,
            "count" : 65891,
            "type" : "VEC3"
        },
        {
            "bufferView" : 2,
            "componentType" : 5125,
            "count" : 348717,
            "type" : "SCALAR"
        },
        {
            "bufferView" : 3,
            "componentType" : 5126,
            "count" : 65948,
            "max" : [
                45.46954345703125,
                34.63182067871094,
                92.37407684326172
            ],
            "min" : [
                -70.15666961669922,
                -14.453339576721191,
                7.017550945281982
            ],
            "type" : "VEC3"
        },
        {
            "bufferView" : 4,
            "componentType" : 5126,
            "count" : 65948,
            "type" : "VEC3"
        },
        {
            "bufferView" : 5,
            "componentType" : 5125,
            "count" : 303219,
            "type" : "SCALAR"
        },
        {
            "bufferView" : 6,
            "componentType" : 5126,
            "count" : 65864,
            "max" : [
                45.47135543823242,
                24.547697067260742,
                94.28850555419922
            ],
            "min" : [
                -14.001523971557617,
                -12.040154457092285,
                40.93470001220703
            ],
            "type" : "VEC3"
        },
        {
            "bufferView" : 7,
            "componentType" : 5126,
            "count" : 65864,
            "type" : "VEC3"
        },
        {
            "bufferView" : 8,
            "componentType" : 5125,
            "count" : 346599,
            "type" : "SCALAR"
        },
        {
            "bufferView" : 9,
            "componentType" : 5126,
            "count" : 65815,
            "max" : [
                45.44280242919922,
                36.143943786621094,
                114.73028564453125
            ],
            "min" : [
                -30.820993423461914,
                -25.406240463256836,
                0.14889399707317352
            ],
            "type" : "VEC3"
        },
        {
            "bufferView" : 10,
            "componentType" : 5126,
            "count" : 65815,
            "type" : "VEC3"
        },
        {
            "bufferView" : 11,
            "componentType" : 5125,
            "count" : 324876,
            "type" : "SCALAR"
        },
        {
            "bufferView" : 12,
            "componentType" : 5126,
            "count" : 25459,
            "max" : [
                45.24433517456055,
                36.143943786621094,
                108.32884216308594
            ],
            "min" : [
                -30.82101058959961,
                -25.49808120727539,
                0.1489042192697525
            ],
            "type" : "VEC3"
        },
        {
            "bufferView" : 13,
            "componentType" : 5126,
            "count" : 25459,
            "type" : "VEC3"
        },
        {
            "bufferView" : 14,
            "componentType" : 5123,
            "count" : 86178,
            "type" : "SCALAR"
        }
    ],
    "bufferViews" : [
        {
            "buffer" : 0,
            "byteLength" : 790692,
            "byteOffset" : 0,
            "target" : 34962
        },
        {
            "buffer" : 0,
            "byteLength" : 790692,
            "byteOffset" : 790692,
            "target" : 34962
        },
        {
            "buffer" : 0,
            "byteLength" : 1394868,
            "byteOffset" : 1581384,
            "target" : 34963
        },
        {
            "buffer" : 0,
            "byteLength" : 791376,
            "byteOffset" : 2976252,
            "target" : 34962
        },
        {
            "buffer" : 0,
            "byteLength" : 791376,
            "byteOffset" : 3767628,
            "target" : 34962
        },
        {
            "buffer" : 0,
            "byteLength" : 1212876,
            "byteOffset" : 4559004,
            "target" : 34963
        },
        {
            "buffer" : 0,
            "byteLength" : 790368,
            "byteOffset" : 5771880,
            "target" : 34962
        },
        {
            "buffer" : 0,
            "byteLength" : 790368,
            "byteOffset" : 6562248,
            "target" : 34962
        },
        {
            "buffer" : 0,
            "byteLength" : 1386396,
            "byteOffset" : 7352616,
            "target" : 34963
        },
        {
            "buffer" : 0,
            "byteLength" : 789780,
            "byteOffset" : 8739012,
            "target" : 34962
        },
        {
            "buffer" : 0,
            "byteLength" : 789780,
            "byteOffset" : 9528792,
            "target" : 34962
        },
        {
            "buffer" : 0,
            "byteLength" : 1299504,
            "byteOffset" : 10318572,
            "target" : 34963
        },
        {
            "buffer" : 0,
            "byteLength" : 305508,
            "byteOffset" : 11618076,
            "target" : 34962
        },
        {
            "buffer" : 0,
            "byteLength" : 305508,
            "byteOffset" : 11923584,
            "target" : 34962
        },
        {
            "buffer" : 0,
            "byteLength" : 172356,
            "byteOffset" : 12229092,
            "target" : 34963
        }
    ],
    "buffers" : [
        {
            "byteLength" : 12401448,
            "uri" : "scene.bin"
        }
    ]
}
