{
  "accessors": [
    {
      "bufferView": 1,
      "componentType": 5126,
      "count": 65532,
      "max": [
        14.803217887878418,
        24.374937057495117,
        91.83966064453125
      ],
      "min": [
        -16.361522674560547,
        -11.205652236938477,
        7.026597499847412
      ],
      "type": "VEC3"
    },
    {
      "bufferView": 1,
      "byteOffset": 786384,
      "componentType": 5126,
      "count": 65532,
      "max": [
        0.9999869465827942,
        0.9999963641166687,
        0.999969482421875
      ],
      "min": [
        -0.9999957084655762,
        -0.9999920129776001,
        -0.9999859929084778
      ],
      "type": "VEC3"
    },
    {
      "bufferView": 0,
      "componentType": 5125,
      "count": 348717,
      "type": "SCALAR"
    },
    {
      "bufferView": 1,
      "byteOffset": 1572768,
      "componentType": 5126,
      "count": 65532,
      "max": [
        45.46954345703125,
        34.63182067871094,
        92.37407684326172
      ],
      "min": [
        -70.15666961669922,
        -14.453339576721191,
        7.017550945281982
      ],
      "type": "VEC3"
    },
    {
      "bufferView": 1,
      "byteOffset": 2359152,
      "componentType": 5126,
      "count": 65532,
      "max": [
        0.9999869465827942,
        0.9999850392341614,
        0.9999998807907104
      ],
      "min": [
        -0.9999843239784241,
        -0.9999867081642151,
        -0.9999778270721436
      ],
      "type": "VEC3"
    },
    {
      "bufferView": 0,
      "byteOffset": 1394868,
      "componentType": 5125,
      "count": 303219,
      "type": "SCALAR"
    },
    {
      "bufferView": 1,
      "byteOffset": 3145536,
      "componentType": 5126,
      "count": 65532,
      "max": [
        45.47135543823242,
        24.547697067260742,
        94.28850555419922
      ],
      "min": [
        -14.001523971557617,
        -12.040154457092285,
        40.93470001220703
      ],
      "type": "VEC3"
    },
    {
      "bufferView": 1,
      "byteOffset": 3931920,
      "componentType": 5126,
      "count": 65532,
      "max": [
        0.9999505877494812,
        0.9999793171882629,
        0.9997305274009705
      ],
      "min": [
        -0.9999729990959167,
        -0.9999974966049194,
        -0.9998336434364319
      ],
      "type": "VEC3"
    },
    {
      "bufferView": 0,
      "byteOffset": 2607744,
      "componentType": 5125,
      "count": 346599,
      "type": "SCALAR"
    },
    {
      "bufferView": 1,
      "byteOffset": 4718304,
      "componentType": 5126,
      "count": 65532,
      "max": [
        45.44280242919922,
        36.143943786621094,
        114.73028564453125
      ],
      "min": [
        -30.820993423461914,
        -25.406240463256836,
        0.14889399707317352
      ],
      "type": "VEC3"
    },
    {
      "bufferView": 1,
      "byteOffset": 5504688,
      "componentType": 5126,
      "count": 65532,
      "max": [
        0.9999942183494568,
        0.9999998211860657,
        1.0
      ],
      "min": [
        -0.9999977350234985,
        -0.9999974966049194,
        -1.0
      ],
      "type": "VEC3"
    },
    {
      "bufferView": 0,
      "byteOffset": 3994140,
      "componentType": 5125,
      "count": 324876,
      "type": "SCALAR"
    },
    {
      "bufferView": 1,
      "byteOffset": 6291072,
      "componentType": 5126,
      "count": 25157,
      "max": [
        45.24433517456055,
        36.143943786621094,
        108.32884216308594
      ],
      "min": [
        -30.82101058959961,
        -25.49808120727539,
        0.1489042192697525
      ],
      "type": "VEC3"
    },
    {
      "bufferView": 1,
      "byteOffset": 6592956,
      "componentType": 5126,
      "count": 25157,
      "max": [
        0.9978811144828796,
        0.9999998211860657,
        1.0
      ],
      "min": [
        -0.9999977350234985,
        -0.9999949336051941,
        -1.0
      ],
      "type": "VEC3"
    },
    {
      "bufferView": 0,
      "byteOffset": 5293644,
      "componentType": 5125,
      "count": 86178,
      "type": "SCALAR"
    }
  ],
  "asset": {
    "extras": {
      "author": "Horgon (https://sketchfab.com/horgon100)",
      "license": "CC-BY-4.0 (http://creativecommons.org/licenses/by/4.0/)",
      "source": "https://sketchfab.com/3d-models/twinkle-128872454cfc452f8669d187dbdcca6b",
      "title": "Twinkle"
    },
    "generator": "Sketchfab-12.66.0",
    "version": "2.0"
  },
  "bufferViews": [
    {
      "buffer": 0,
      "byteLength": 5638356,
      "name": "floatBufferViews",
      "target": 34963
    },
    {
      "buffer": 0,
      "byteLength": 6894840,
      "byteOffset": 5638356,
      "byteStride": 12,
      "name": "floatBufferViews",
      "target": 34962
    }
  ],
  "buffers": [
    {
      "byteLength": 12533196,
      "uri": "scene.bin"
    }
  ],
  "materials": [
    {
      "doubleSided": true,
      "name": "Scene_-_Root",
      "pbrMetallicRoughness": {
        "metallicFactor": 0.0,
        "roughnessFactor": 0.6
      }
    }
  ],
  "meshes": [
    {
      "name": "Object_0",
      "primitives": [
        {
          "attributes": {
            "NORMAL": 1,
            "POSITION": 0
          },
          "indices": 2,
          "material": 0,
          "mode": 4
        }
      ]
    },
    {
      "name": "Object_1",
      "primitives": [
        {
          "attributes": {
            "NORMAL": 4,
            "POSITION": 3
          },
          "indices": 5,
          "material": 0,
          "mode": 4
        }
      ]
    },
    {
      "name": "Object_2",
      "primitives": [
        {
          "attributes": {
            "NORMAL": 7,
            "POSITION": 6
          },
          "indices": 8,
          "material": 0,
          "mode": 4
        }
      ]
    },
    {
      "name": "Object_3",
      "primitives": [
        {
          "attributes": {
            "NORMAL": 10,
            "POSITION": 9
          },
          "indices": 11,
          "material": 0,
          "mode": 4
        }
      ]
    },
    {
      "name": "Object_4",
      "primitives": [
        {
          "attributes": {
            "NORMAL": 13,
            "POSITION": 12
          },
          "indices": 14,
          "material": 0,
          "mode": 4
        }
      ]
    }
  ],
  "nodes": [
    {
      "children": [
        1
      ],
      "matrix": [
        1.0,
        0.0,
        0.0,
        0.0,
        0.0,
        2.220446049250313e-16,
        -1.0,
        0.0,
        0.0,
        1.0,
        2.220446049250313e-16,
        0.0,
        0.0,
        0.0,
        0.0,
        1.0
      ],
      "name": "Sketchfab_model"
    },
    {
      "children": [
        2,
        3,
        4,
        5,
        6
      ],
      "name": "Twinkle.stl.cleaner.materialmerger.gles"
    },
    {
      "mesh": 0,
      "name": "Object_2"
    },
    {
      "mesh": 1,
      "name": "Object_3"
    },
    {
      "mesh": 2,
      "name": "Object_4"
    },
    {
      "mesh": 3,
      "name": "Object_5"
    },
    {
      "mesh": 4,
      "name": "Object_6"
    }
  ],
  "scene": 0,
  "scenes": [
    {
      "name": "Sketchfab_Scene",
      "nodes": [
        0
      ]
    }
  ]
}
