{
    "asset" : {
        "generator" : "Khronos glTF Blender I/O v3.4.50",
        "version" : "2.0"
    },
    "scene" : 0,
    "scenes" : [
        {
            "name" : "Scene",
            "nodes" : [
                5
            ]
        }
    ],
    "nodes" : [
        {
            "mesh" : 0,
            "name" : "Object_2"
        },
        {
            "mesh" : 1,
            "name" : "Object_3"
        },
        {
            "mesh" : 2,
            "name" : "Object_4"
        },
        {
            "mesh" : 3,
            "name" : "Object_5"
        },
        {
            "children" : [
                0,
                1,
                2,
                3
            ],
            "name" : "Elven_Archer.stl.cleaner.materialmerger.gles"
        },
        {
            "children" : [
                4
            ],
            "name" : "Sketchfab_model",
            "translation" : [
                -3.3099777698516846,
                -2.0227482318878174,
                -8.556414604187012
            ]
        }
    ],
    "materials" : [
        {
            "doubleSided" : true,
            "name" : "Scene_-_Root",
            "pbrMetallicRoughness" : {
                "metallicFactor" : 0,
                "roughnessFactor" : 0.6000000238418579
            }
        }
    ],
    "meshes" : [
        {
            "name" : "Object_0",
            "primitives" : [
                {
                    "attributes" : {
                        "COLOR_0" : 0,
                        "POSITION" : 1,
                        "NORMAL" : 2
                    },
                    "indices" : 3,
                    "material" : 0
                }
            ]
        },
        {
            "name" : "Object_1",
            "primitives" : [
                {
                    "attributes" : {
                        "COLOR_0" : 4,
                        "POSITION" : 5,
                        "NORMAL" : 6
                    },
                    "indices" : 7,
                    "material" : 0
                }
            ]
        },
        {
            "name" : "Object_2",
            "primitives" : [
                {
                    "attributes" : {
                        "COLOR_0" : 8,
                        "POSITION" : 9,
                        "NORMAL" : 10
                    },
                    "indices" : 11,
                    "material" : 0
                }
            ]
        },
        {
            "name" : "Object_3",
            "primitives" : [
                {
                    "attributes" : {
                        "COLOR_0" : 12,
                        "POSITION" : 13,
                        "NORMAL" : 14
                    },
                    "indices" : 15,
                    "material" : 0
                }
            ]
        }
    ],
    "accessors" : [
        {
            "bufferView" : 0,
            "componentType" : 5123,
            "count" : 66105,
            "normalized" : true,
            "type" : "VEC4"
        },
        {
            "bufferView" : 1,
            "componentType" : 5126,
            "count" : 66105,
            "max" : [
                24.178251266479492,
                25.033952713012695,
                23.40633201599121
            ],
            "min" : [
                0.09038559347391129,
                0.00039793396717868745,
                -5.474092290569388e-07
            ],
            "type" : "VEC3"
        },
        {
            "bufferView" : 2,
            "componentType" : 5126,
            "count" : 66105,
            "type" : "VEC3"
        },
        {
            "bufferView" : 3,
            "componentType" : 5125,
            "count" : 333699,
            "type" : "SCALAR"
        },
        {
            "bufferView" : 4,
            "componentType" : 5123,
            "count" : 66420,
            "normalized" : true,
            "type" : "VEC4"
        },
        {
            "bufferView" : 5,
            "componentType" : 5126,
            "count" : 66420,
            "max" : [
                24.203214645385742,
                25.399993896484375,
                24.20514678955078
            ],
            "min" : [
                0.970058798789978,
                1.3185025409256923e-06,
                0.029541241005063057
            ],
            "type" : "VEC3"
        },
        {
            "bufferView" : 6,
            "componentType" : 5126,
            "count" : 66420,
            "type" : "VEC3"
        },
        {
            "bufferView" : 7,
            "componentType" : 5125,
            "count" : 309975,
            "type" : "SCALAR"
        },
        {
            "bufferView" : 8,
            "componentType" : 5123,
            "count" : 66784,
            "normalized" : true,
            "type" : "VEC4"
        },
        {
            "bufferView" : 9,
            "componentType" : 5126,
            "count" : 66784,
            "max" : [
                24.144685745239258,
                25.399993896484375,
                24.20514678955078
            ],
            "min" : [
                -3.1627831731384504e-07,
                1.3185025409256923e-06,
                0.0488119050860405
            ],
            "type" : "VEC3"
        },
        {
            "bufferView" : 10,
            "componentType" : 5126,
            "count" : 66784,
            "type" : "VEC3"
        },
        {
            "bufferView" : 11,
            "componentType" : 5125,
            "count" : 258423,
            "type" : "SCALAR"
        },
        {
            "bufferView" : 12,
            "componentType" : 5123,
            "count" : 35104,
            "normalized" : true,
            "type" : "VEC4"
        },
        {
            "bufferView" : 13,
            "componentType" : 5126,
            "count" : 35104,
            "max" : [
                24.198801040649414,
                25.21823501586914,
                24.18102264404297
            ],
            "min" : [
                -3.1627831731384504e-07,
                0.0003555475559551269,
                0.001608620979823172
            ],
            "type" : "VEC3"
        },
        {
            "bufferView" : 14,
            "componentType" : 5126,
            "count" : 35104,
            "type" : "VEC3"
        },
        {
            "bufferView" : 15,
            "componentType" : 5123,
            "count" : 70962,
            "type" : "SCALAR"
        }
    ],
    "bufferViews" : [
        {
            "buffer" : 0,
            "byteLength" : 528840,
            "byteOffset" : 0,
            "target" : 34962
        },
        {
            "buffer" : 0,
            "byteLength" : 793260,
            "byteOffset" : 528840,
            "target" : 34962
        },
        {
            "buffer" : 0,
            "byteLength" : 793260,
            "byteOffset" : 1322100,
            "target" : 34962
        },
        {
            "buffer" : 0,
            "byteLength" : 1334796,
            "byteOffset" : 2115360,
            "target" : 34963
        },
        {
            "buffer" : 0,
            "byteLength" : 531360,
            "byteOffset" : 3450156,
            "target" : 34962
        },
        {
            "buffer" : 0,
            "byteLength" : 797040,
            "byteOffset" : 3981516,
            "target" : 34962
        },
        {
            "buffer" : 0,
            "byteLength" : 797040,
            "byteOffset" : 4778556,
            "target" : 34962
        },
        {
            "buffer" : 0,
            "byteLength" : 1239900,
            "byteOffset" : 5575596,
            "target" : 34963
        },
        {
            "buffer" : 0,
            "byteLength" : 534272,
            "byteOffset" : 6815496,
            "target" : 34962
        },
        {
            "buffer" : 0,
            "byteLength" : 801408,
            "byteOffset" : 7349768,
            "target" : 34962
        },
        {
            "buffer" : 0,
            "byteLength" : 801408,
            "byteOffset" : 8151176,
            "target" : 34962
        },
        {
            "buffer" : 0,
            "byteLength" : 1033692,
            "byteOffset" : 8952584,
            "target" : 34963
        },
        {
            "buffer" : 0,
            "byteLength" : 280832,
            "byteOffset" : 9986276,
            "target" : 34962
        },
        {
            "buffer" : 0,
            "byteLength" : 421248,
            "byteOffset" : 10267108,
            "target" : 34962
        },
        {
            "buffer" : 0,
            "byteLength" : 421248,
            "byteOffset" : 10688356,
            "target" : 34962
        },
        {
            "buffer" : 0,
            "byteLength" : 141924,
            "byteOffset" : 11109604,
            "target" : 34963
        }
    ],
    "buffers" : [
        {
            "byteLength" : 11251528,
            "uri" : "scene.bin"
        }
    ]
}
