{
    "asset" : {
        "generator" : "Khronos glTF Blender I/O v3.4.50",
        "version" : "2.0"
    },
    "scene" : 0,
    "scenes" : [
        {
            "name" : "Scene",
            "nodes" : [
                0
            ]
        }
    ],
    "nodes" : [
        {
            "mesh" : 0,
            "name" : "d10",
            "rotation" : [
                0,
                0.11320321261882782,
                0,
                0.993571937084198
            ],
            "scale" : [
                0.6781135201454163,
                0.6781135201454163,
                0.6781135201454163
            ]
        }
    ],
    "materials" : [
        {
            "doubleSided" : true,
            "name" : "Dice.008",
            "pbrMetallicRoughness" : {}
        },
        {
            "doubleSided" : true,
            "emissiveFactor" : [
                0.43305501341819763,
                0.058529697358608246,
                0.015158036723732948
            ],
            "name" : "Numbers.008",
            "pbrMetallicRoughness" : {
                "baseColorFactor" : [
                    0,
                    0,
                    0,
                    1
                ]
            }
        }
    ],
    "meshes" : [
        {
            "name" : "Cylinder.001",
            "primitives" : [
                {
                    "attributes" : {
                        "POSITION" : 0,
                        "NORMAL" : 1
                    },
                    "indices" : 2,
                    "material" : 0
                },
                {
                    "attributes" : {
                        "POSITION" : 3,
                        "NORMAL" : 4
                    },
                    "indices" : 5,
                    "material" : 1
                }
            ]
        }
    ],
    "accessors" : [
        {
            "bufferView" : 0,
            "componentType" : 5126,
            "count" : 24710,
            "max" : [
                1.3311195373535156,
                1.3456401824951172,
                1.3907835483551025
            ],
            "min" : [
                -1.331119179725647,
                -1.3456401824951172,
                -1.3907835483551025
            ],
            "type" : "VEC3"
        },
        {
            "bufferView" : 1,
            "componentType" : 5126,
            "count" : 24710,
            "type" : "VEC3"
        },
        {
            "bufferView" : 2,
            "componentType" : 5123,
            "count" : 32682,
            "type" : "SCALAR"
        },
        {
            "bufferView" : 3,
            "componentType" : 5126,
            "count" : 93598,
            "max" : [
                1.1262531280517578,
                0.8070481419563293,
                1.1485722064971924
            ],
            "min" : [
                -1.1638613939285278,
                -0.7461051940917969,
                -1.1235368251800537
            ],
            "type" : "VEC3"
        },
        {
            "bufferView" : 4,
            "componentType" : 5126,
            "count" : 93598,
            "type" : "VEC3"
        },
        {
            "bufferView" : 5,
            "componentType" : 5125,
            "count" : 105444,
            "type" : "SCALAR"
        }
    ],
    "bufferViews" : [
        {
            "buffer" : 0,
            "byteLength" : 296520,
            "byteOffset" : 0,
            "target" : 34962
        },
        {
            "buffer" : 0,
            "byteLength" : 296520,
            "byteOffset" : 296520,
            "target" : 34962
        },
        {
            "buffer" : 0,
            "byteLength" : 65364,
            "byteOffset" : 593040,
            "target" : 34963
        },
        {
            "buffer" : 0,
            "byteLength" : 1123176,
            "byteOffset" : 658404,
            "target" : 34962
        },
        {
            "buffer" : 0,
            "byteLength" : 1123176,
            "byteOffset" : 1781580,
            "target" : 34962
        },
        {
            "buffer" : 0,
            "byteLength" : 421776,
            "byteOffset" : 2904756,
            "target" : 34963
        }
    ],
    "buffers" : [
        {
            "byteLength" : 3326532,
            "uri" : "d10.bin"
        }
    ]
}
